<svg xmlns="http://www.w3.org/2000/svg" id="Livello_1" viewBox="0 0 59.16 59.16"><path d="M15.53,22.68h-1.97v-2.12h1.97v2.12ZM20.07,20.56h-1.97v2.12h1.97v-2.12ZM15.53,25.18h-1.97v2.12h1.97v-2.12ZM20.07,25.18h-1.97v2.12h1.97v-2.12ZM27.21,22.68h1.97v-2.12h-1.97v2.12ZM31.75,22.68h1.97v-2.12h-1.97v2.12ZM27.21,27.42h1.97v-2.12h-1.97v2.12ZM31.75,27.42h1.97v-2.12h-1.97v2.12ZM43.37,20.56h-1.97v2.12h1.97v-2.12ZM43.37,25.3h-1.97v2.12h1.97v-2.12ZM15.53,29.81h-1.97v2.12h1.97v-2.12ZM56.43,39.63v1.58c0,.18-.07.36-.2.49l-.66.66c-.13.13-.31.2-.49.2h-.74c-.13.41-.3.82-.5,1.2l.52.52c.13.13.2.31.2.49v.94c0,.18-.07.36-.2.49l-1.11,1.11c-.13.13-.31.2-.49.2h-.94c-.18,0-.36-.07-.49-.2l-.52-.52c-.38.2-.79.37-1.2.5v.74c0,.18-.07.36-.2.49l-.66.66c-.13.13-.31.2-.49.2h-.1v2.7c0,.38-.31.69-.69.69h-6.26v.41c0,1.22-.99,2.21-2.21,2.21H6.78c-1.22,0-2.21-.99-2.21-2.21v-2.28c0-1.22.99-2.21,2.21-2.21h.98v-1.06c0-1.99.4-3.97,1.17-5.8v-25.78c0-.38.31-.69.69-.69h11.67v-3.81c0-.38.31-.69.69-.69h2.52v-3.05c0-.38.31-.69.69-.69h3.75v-1.8c0-.38.31-.69.69-.69s.69.31.69.69v1.81h3.75c.38,0,.69.31.69.69h0v3.05h2.52c.38,0,.69.31.69.69h0v1.49l9.61,1.66c.33.06.57.34.57.68v16.08h.1c.18,0,.36.07.49.2l.66.66c.13.13.2.31.2.49v.74c.41.13.82.3,1.2.5l.52-.52c.13-.13.3-.2.49-.2h.94c.18,0,.36.07.49.2l1.11,1.11c.13.13.2.31.2.49v.94c0,.18-.07.36-.2.49l-.52.52c.2.38.37.79.5,1.2h.74c.18,0,.36.07.49.2l.66.66c.13.13.2.31.2.49ZM25.88,10.85h7.5v-2.36h-7.5v2.36ZM10.31,39.24c.25-.38.52-.74.8-1.09,2.01-2.49,4.75-4.29,7.84-5.13v-1.98c.07-.85.8-1.49,1.65-1.43h2.71v-12.88h-13.01v22.51ZM9.14,48.68h27.49v-1.06c-.04-6.06-4.02-11.39-9.81-13.17v4.76c0,.38-.31.69-.69.69s-.69-.31-.69-.69v-8.14c-.08-.06-.18-.09-.27-.09h-4.55c-.1,0-.2.03-.27.09v8.14c-.02.38-.35.67-.73.65-.35-.02-.62-.3-.65-.65v-4.76c-5.8,1.77-9.77,7.11-9.81,13.17v1.06ZM39.82,50.89c0-.46-.37-.83-.83-.83H6.78c-.46,0-.83.37-.83.83v2.28c0,.46.37.83.83.83h32.21c.46,0,.83-.37.83-.83v-2.28ZM46.78,49.38h-.1c-.18,0-.36-.07-.49-.2l-.66-.66c-.13-.13-.2-.31-.2-.49v-.74c-.41-.13-.82-.3-1.2-.5l-.52.52c-.13.13-.31.2-.49.2h-.94c-.18,0-.36-.07-.49-.2l-1.11-1.11c-.13-.13-.2-.31-.2-.49v-.94c0-.18.07-.36.2-.49l.52-.52c-.2-.38-.37-.79-.5-1.2h-.74c-.18,0-.36-.07-.49-.2l-.66-.66c-.13-.13-.2-.31-.2-.49v-1.58c0-.18.07-.36.2-.49l.66-.66c.13-.13.31-.2.49-.2h.74c.13-.41.3-.82.5-1.2l-.52-.52c-.13-.13-.2-.31-.2-.49v-.94c0-.18.07-.36.2-.49l1.11-1.11c.13-.13.31-.2.49-.2h.94c.18,0,.36.07.49.2l.52.52c.38-.2.79-.37,1.2-.5v-.74c0-.18.07-.36.2-.49l.66-.66c.13-.13.31-.2.49-.2h.1v-15.51l-8.8-1.52v22.2c0,.38-.31.69-.69.69s-.69-.31-.69-.69V12.23h-13.93v3.12h1.34c.38,0,.69.31.69.69h0v13.57h.46c.85-.06,1.59.58,1.65,1.43v1.98c6.59,1.79,11.17,7.77,11.19,14.6v1.06h.98c1.22,0,2.21.99,2.21,2.21v.49h5.57v-2.01ZM55.05,39.92l-.26-.26h-.98c-.32,0-.6-.22-.67-.54-.14-.63-.39-1.24-.74-1.79-.17-.27-.13-.63.1-.86l.69-.69v-.36l-.71-.71h-.37l-.69.69c-.23.23-.58.27-.86.1-.55-.35-1.16-.6-1.8-.74-.31-.07-.54-.35-.54-.67v-.98l-.26-.26h-1l-.26.26v.98c0,.32-.22.6-.54.67-.63.14-1.24.39-1.79.74-.27.17-.63.13-.86-.1l-.69-.69h-.37l-.71.71v.37l.69.69c.23.23.27.58.1.86-.35.55-.6,1.16-.74,1.79-.07.31-.35.54-.67.54h-.98l-.26.26v1l.26.26h.98c.32,0,.6.22.67.54.14.63.4,1.24.74,1.79.17.27.13.63-.1.86l-.69.69v.37l.71.71h.37l.69-.69c.23-.23.58-.27.86-.1.55.35,1.16.6,1.79.74.31.07.54.35.54.67v.98l.26.26h1l.26-.26v-.98c0-.32.22-.6.54-.67.63-.14,1.24-.39,1.79-.74.27-.17.63-.13.86.1l.69.69h.37l.71-.71v-.37l-.69-.69c-.23-.23-.27-.58-.1-.86.35-.55.6-1.16.74-1.79.07-.31.35-.54.67-.54h.98l.26-.26v-1ZM51.57,40.3c.07,2.26-1.71,4.15-3.98,4.22h-.12c-2.26,0-4.1-1.84-4.1-4.11,0-2.26,1.84-4.1,4.11-4.1,1.04,0,2.05.4,2.8,1.11h0c.79.75,1.26,1.78,1.28,2.87ZM50.19,40.34c-.02-.72-.33-1.41-.85-1.9h0c-1.09-1.03-2.82-.98-3.85.11-1.03,1.09-.98,2.82.11,3.85,1.09,1.03,2.82.98,3.85-.11.49-.52.76-1.22.74-1.95Z"></path></svg>